P1
# Created by GIMP version 2.10.36 PNM plug-in
50 50
1111111111111111111111111111111111111111111111111110000000000000000100
0000000000010000000000000000011000000000000000010000000000000100000000
0000000001100000000000000001000000000000010000000000000000011000000000
0000000100000000000001000000000000000001100000000100000000000001000000
0000000000001000000110000000010000000000000100000000000000000010000001
1000000001000000000000010000000000000000001000000110000000010000000000
0001000000000000000000100000011111111111111111111111111111111100000111
1111111111100000000000000000000000000000010000010000000000011000000000
0000000000000000000011000000000000000001100000000000000000000000000000
0000000000000000000110000000000000000000000000000000000000000000000001
1000000000000000000000000000000000000111111110000110000000011111111111
1111110000110000000000001000011000000001000000000000000100000100000000
0000100001100000000100000000000000010000010000000000001000011000000001
0000000000000001000001000000000000100001100000000100000000000000010000
0100000111111110000110000000010000000000000001000001000001000000000001
1000000001000000000000000100000100000100000000000110000000011111110000
0000010000010000010000000000011000000000000000000000000000000100000100
0000000001100000000000000000000000000000010000010000000000011000000000
0000000000000000000001000001000000000001100000000000000000000000000000
0100000100000000000110000000000000000000000000000001111111000111000001
1111111111111111111110000000000000100000000100000110000000000000000000
1000000000000010000000010000011000000000000000000010000000000000100000
0001000001100000000000000000001000000000000010000000010000011011111111
1111110000100000000000000000000001000001101000000000000100001000000000
0000000000000000000110100000000000010000100000000000000001110000000001
1011110000011111000010000000000000000111000000000110000100000100000000
1000000000000000000000000000011000010000010000000000000000000000100000
0000000001100001000001000000000000000000000010000000010000011000010000
0100000000000000000000001000000001000001100001000001000000000000000011
1111100000000100000110000100000111111000000000001000001000000001000001
1000010000000000100010000000100000100000000100000110000100000000001000
1000000010000011111111110000011000010001111000100010000000100000000000
0000000001100001111100111110001000000010000000000000000000011000000000
0000000000100000001000000000000000000001100000000000000000001000000010
0000000000000000000110000000000000000000100000001000000000000000000001
11111111111111111111111111111111111111111111111111